<?xml version="1.0" standalone="no"?>
<!DOCTYPE svg PUBLIC "-//W3C//DTD SVG 20010904//EN"
 "http://www.w3.org/TR/2001/REC-SVG-20010904/DTD/svg10.dtd">
<svg version="1.0" xmlns="http://www.w3.org/2000/svg"
 width="161.000000pt" height="210.000000pt" viewBox="0 0 161.000000 210.000000"
 preserveAspectRatio="xMidYMid meet">

<g transform="translate(0.000000,210.000000) scale(0.100000,-0.100000)"
fill="#000000" stroke="none">
<path d="M670 2085 c-140 -24 -244 -70 -357 -159 -286 -224 -384 -609 -242
-947 121 -289 416 -483 734 -484 358 0 667 233 770 580 35 116 39 289 11 405
-66 269 -263 486 -521 575 -65 22 -206 45 -270 44 -27 -1 -84 -7 -125 -14z
m275 -280 c87 -18 214 -80 281 -137 154 -131 238 -309 238 -508 0 -176 -58
-319 -182 -451 -41 -44 -79 -79 -86 -79 -6 0 0 10 14 23 80 70 149 190 181
314 79 312 -101 643 -406 744 -83 28 -248 33 -330 10 -160 -44 -316 -175 -384
-322 -41 -88 -71 -207 -71 -284 0 -144 69 -318 172 -430 41 -45 52 -62 32 -47
-67 47 -144 143 -188 235 -56 117 -66 162 -66 287 0 200 70 357 221 494 85 77
217 141 329 159 58 10 180 6 245 -8z m-30 -330 c174 -46 311 -193 351 -377 36
-171 -12 -333 -136 -459 -98 -99 -190 -139 -325 -139 -134 0 -245 49 -337 149
-88 97 -131 207 -132 341 -1 320 286 561 579 485z"/>
<path d="M772 1401 c4 -13 18 -16 19 -4 0 4 -5 9 -11 12 -7 2 -11 -2 -8 -8z"/>
<path d="M832 1336 c-14 -37 -10 -56 12 -56 16 0 76 -59 76 -75 0 -6 -10 -17
-22 -22 -23 -11 -22 -11 7 -19 45 -11 120 -60 148 -97 55 -73 71 -117 71 -207
0 -73 -4 -93 -27 -142 -25 -52 -106 -138 -128 -138 -5 0 -9 31 -9 69 0 79 -16
130 -65 209 -39 63 -61 137 -71 235 -7 65 -6 66 26 95 l32 29 -29 20 c-92 66
-152 9 -99 -94 18 -36 28 -77 37 -163 l12 -115 -30 -60 c-17 -33 -33 -80 -36
-105 -3 -25 -9 -55 -14 -65 -7 -20 -6 -20 21 -2 15 10 32 17 37 15 15 -5 -43
-88 -62 -88 -24 0 -104 57 -134 95 -75 99 -91 231 -41 336 29 62 93 131 137
150 26 10 29 15 24 43 -4 21 1 44 15 71 25 49 19 105 -11 105 -28 0 -132 -55
-174 -91 -149 -131 -181 -384 -71 -557 36 -57 121 -131 184 -160 49 -22 71
-26 157 -27 92 0 105 3 166 31 127 60 216 184 239 330 34 217 -123 447 -326
480 -38 6 -40 5 -52 -30z"/>
<path d="M766 1336 c4 -11 8 -23 10 -25 6 -7 22 9 27 28 3 14 -1 19 -20 19
-19 0 -22 -4 -17 -22z"/>
<path d="M100 375 c0 -31 3 -35 25 -35 l25 0 0 -135 0 -135 -25 0 c-22 0 -25
-5 -25 -32 l0 -33 125 3 125 3 0 29 c0 24 -5 29 -27 32 -26 3 -28 6 -28 53 l0
50 68 3 67 3 0 -56 c0 -52 -1 -55 -25 -55 -22 0 -25 -5 -25 -32 l0 -33 120 3
120 3 0 29 c0 22 -5 29 -22 32 -23 3 -23 6 -23 133 0 127 0 130 23 133 18 3
22 10 22 38 l0 34 -120 0 -120 0 0 -35 c0 -31 3 -35 25 -35 23 0 25 -4 25 -40
l0 -41 -67 3 -68 3 0 35 c0 31 3 35 28 38 25 3 28 7 25 35 l-3 32 -122 3 -123
3 0 -36z m230 1 c0 -8 -10 -16 -22 -18 -20 -3 -23 -10 -26 -60 l-3 -58 86 0
86 0 -3 53 c-2 43 -7 54 -25 62 -13 5 -23 15 -23 22 0 10 27 13 105 13 83 0
105 -3 105 -14 0 -8 -11 -17 -25 -20 l-25 -6 0 -145 0 -145 25 -6 c14 -3 25
-12 25 -20 0 -11 -22 -14 -105 -14 -83 0 -105 3 -105 14 0 8 11 17 25 20 24 6
25 10 25 76 l0 70 -85 0 -85 0 0 -70 c0 -66 1 -70 25 -76 14 -3 25 -12 25 -20
0 -11 -22 -14 -105 -14 -83 0 -105 3 -105 14 0 8 11 17 25 20 l26 7 -3 142
c-3 136 -4 142 -25 152 -13 5 -23 15 -23 22 0 10 27 13 105 13 84 0 105 -3
105 -14z"/>
<path d="M650 376 c0 -28 4 -35 23 -38 22 -3 22 -6 22 -133 0 -127 0 -130 -22
-133 -18 -3 -23 -10 -23 -33 l0 -29 120 0 120 0 0 30 c0 25 -4 30 -25 30 -22
0 -25 4 -25 34 0 28 24 68 33 55 2 -2 14 -20 28 -39 20 -27 25 -43 21 -73 l-4
-37 126 0 126 0 0 30 c0 25 -4 30 -23 30 -12 0 -32 7 -43 14 -24 17 -139 155
-133 160 2 1 30 23 62 49 33 26 67 47 78 47 17 0 19 -8 19 -80 l0 -80 30 0 30
0 0 79 0 80 35 3 c28 2 41 10 56 36 l21 32 -192 0 -193 0 5 -43 c5 -40 3 -44
-39 -75 l-43 -33 0 41 c0 36 2 40 25 40 22 0 25 4 25 35 l0 35 -120 0 -120 0
0 -34z m220 -1 c0 -8 -9 -15 -19 -15 -24 0 -31 -19 -31 -86 l0 -55 78 61 c66
51 84 60 117 60 l40 -1 -54 -49 c-41 -36 -52 -52 -45 -62 89 -117 136 -166
164 -171 18 -4 30 -13 30 -22 0 -12 -18 -15 -105 -15 -106 0 -124 7 -94 37 8
8 0 26 -31 67 -23 31 -45 56 -49 56 -4 0 -17 -7 -29 -16 -32 -22 -28 -94 6
-109 12 -5 22 -16 22 -23 0 -17 -201 -13 -207 4 -2 7 8 15 22 18 l26 7 -3 147
c-3 144 -3 147 -25 150 -23 3 -29 13 -16 25 3 4 51 7 105 7 80 0 98 -3 98 -15z"/>
<path d="M1387 319 l-66 -92 -21 37 c-17 28 -28 36 -51 36 l-30 0 33 -60 c29
-54 35 -60 64 -60 29 0 39 9 106 102 98 137 94 128 60 128 -25 0 -38 -13 -95
-91z"/>
</g>
</svg>
